<?xml version="1.0" standalone="no"?>
<!DOCTYPE svg PUBLIC "-//W3C//DTD SVG 20010904//EN"
 "http://www.w3.org/TR/2001/REC-SVG-20010904/DTD/svg10.dtd">
<svg version="1.0" xmlns="http://www.w3.org/2000/svg"
 width="512.000000pt" height="512.000000pt" viewBox="0 0 512.000000 512.000000"
 preserveAspectRatio="xMidYMid meet">

<g transform="translate(0.000000,512.000000) scale(0.100000,-0.100000)"
fill="#000000" stroke="none">
<path d="M1106 5112 c-3 -5 -8 -29 -11 -53 l-5 -44 14 50 c14 48 15 67 2 47z"/>
<path d="M1261 5098 c-33 -85 -41 -111 -57 -180 -23 -105 -16 -268 16 -353 12
-33 23 -72 24 -87 1 -25 4 -23 50 30 27 31 75 82 107 112 42 40 55 59 49 70
-14 25 -40 178 -40 234 0 42 7 64 40 120 45 76 48 103 4 34 -75 -118 -110
-252 -100 -388 7 -84 7 -85 -24 -122 -17 -21 -35 -38 -39 -38 -5 0 -17 30 -27
68 -14 50 -19 98 -18 192 0 127 12 186 55 288 l18 42 -25 0 c-16 0 -27 -8 -33
-22z m137 -395 c8 -41 9 -60 1 -70 -22 -26 -29 -12 -29 57 0 39 4 70 8 70 4 0
13 -26 20 -57z"/>
<path d="M1762 5109 c-37 -11 -58 -49 -43 -77 12 -22 68 -73 104 -95 15 -10
27 -22 27 -28 0 -23 -33 -19 -92 10 l-62 32 -18 -23 c-9 -13 -27 -44 -39 -71
-36 -76 -19 -80 103 -18 150 75 288 103 503 104 176 1 286 -14 465 -62 92 -25
210 -73 210 -86 0 -2 -25 5 -57 16 -64 22 -267 63 -285 57 -6 -2 27 -12 73
-22 46 -10 122 -29 169 -43 90 -26 358 -129 375 -144 17 -17 28 -9 12 9 -8 9
-20 46 -27 82 -15 88 -44 178 -93 283 -37 81 -42 87 -69 87 -16 0 -28 -3 -26
-7 2 -5 22 -46 44 -93 43 -89 78 -188 90 -253 l7 -39 -41 21 c-31 16 -41 27
-46 54 -18 96 -155 317 -196 317 -25 0 -25 -2 5 -64 26 -55 72 -213 63 -221
-3 -3 -25 4 -49 14 -25 11 -87 32 -139 46 -52 15 -101 28 -108 31 -10 3 -10 8
-1 26 12 23 12 23 -9 5 -18 -17 -26 -17 -84 -6 -34 6 -66 15 -71 19 -4 3 18
19 49 34 51 25 54 29 37 41 -26 20 -36 18 -64 -11 -30 -33 -63 -52 -57 -33 2
7 -8 24 -24 37 -24 20 -28 30 -24 56 3 17 3 24 -1 16 -3 -8 -19 -34 -36 -57
-37 -52 -81 -69 -192 -77 -45 -4 -113 -15 -153 -26 -60 -17 -79 -18 -122 -9
-66 14 -134 65 -138 103 -4 36 4 44 64 61 29 8 39 13 24 13 -14 0 -40 -4 -58
-9z m1144 -82 c9 -18 25 -41 35 -52 20 -23 90 -177 83 -184 -2 -2 -22 4 -44
14 -33 15 -42 25 -51 59 -12 47 -48 174 -54 194 -8 24 15 1 31 -31z m-1205
-115 c-9 -17 -7 -24 14 -40 l25 -20 -52 -21 c-28 -12 -53 -20 -54 -18 -4 3 28
67 53 105 17 28 29 22 14 -6z"/>
<path d="M1883 5088 c-85 -20 -123 -34 -123 -44 0 -16 12 -18 25 -5 6 5 73 24
150 42 77 17 142 33 144 35 15 13 -93 -2 -196 -28z"/>
<path d="M2551 5117 c22 -18 119 -66 119 -59 0 10 -92 62 -111 62 -7 0 -10 -2
-8 -3z"/>
<path d="M3170 5110 c0 -5 9 -33 21 -62 34 -87 59 -207 66 -319 6 -104 7 -107
35 -124 16 -9 32 -14 35 -11 4 3 2 6 -4 6 -17 0 -31 49 -37 129 -8 90 -35 201
-77 310 -29 76 -39 94 -39 71z"/>
<path d="M3360 5113 c0 -5 7 -46 16 -93 16 -92 17 -271 3 -360 -15 -86 -15
-93 -2 -97 11 -4 20 22 28 86 2 19 10 38 17 42 7 4 28 19 47 33 19 14 37 23
41 21 7 -4 17 14 47 85 22 51 -8 23 -32 -30 -10 -23 -33 -49 -54 -62 -20 -13
-41 -26 -47 -30 -9 -6 -10 26 -6 120 5 135 -4 274 -18 253 -5 -9 -9 -5 -14 13
-6 23 -26 38 -26 19z"/>
<path d="M3774 5072 c-117 -80 -188 -134 -201 -150 -20 -24 -15 -37 5 -14 20
23 148 122 158 122 3 0 21 12 38 28 17 15 43 35 56 44 14 9 22 17 19 17 -3 1
-37 -21 -75 -47z"/>
<path d="M3849 5067 c-42 -29 -83 -56 -91 -62 -98 -63 -188 -126 -188 -131 0
-8 87 43 133 78 43 34 45 30 13 -31 -15 -29 -43 -58 -82 -85 -70 -49 -101 -99
-80 -131 20 -30 56 -29 119 4 129 68 246 179 267 256 12 44 6 155 -8 155 -4
-1 -41 -24 -83 -53z m-95 -139 c-4 -13 -7 -29 -7 -36 0 -7 -4 -9 -9 -4 -5 5
-4 20 3 35 15 33 23 35 13 5z m66 -53 c0 -2 -10 -9 -22 -15 -22 -11 -22 -10
-4 4 21 17 26 19 26 11z m41 -9 c-41 -50 -222 -166 -258 -166 -28 0 -48 33
-34 58 11 22 75 72 90 72 5 0 14 -7 19 -16 14 -24 70 -11 129 30 51 36 73 45
54 22z"/>
<path d="M4075 5073 c-23 -174 -63 -290 -117 -341 -14 -12 -123 -71 -243 -131
-126 -63 -213 -111 -206 -115 7 -4 17 -3 24 2 19 15 373 192 384 192 16 0 89
83 112 128 43 84 89 312 63 312 -6 0 -14 -21 -17 -47z"/>
<path d="M2065 5030 c-13 -5 -14 -9 -5 -9 8 0 24 4 35 9 13 5 14 9 5 9 -8 0
-24 -4 -35 -9z"/>
<path d="M1076 4958 c-3 -29 -6 -102 -6 -162 0 -60 -2 -107 -5 -104 -3 3 -11
35 -18 72 l-12 68 -59 24 c-72 29 -72 29 -90 2 -13 -20 -13 -32 -1 -88 17 -80
65 -234 71 -227 3 2 0 16 -5 30 -18 48 -53 201 -54 241 -2 32 2 41 17 44 29 6
104 -27 111 -49 10 -31 2 -32 -48 -3 -26 14 -53 24 -59 21 -7 -2 8 -13 33 -24
49 -22 48 -21 65 -116 5 -32 11 -39 35 -44 21 -4 31 -13 35 -32 5 -23 15 -52
64 -191 7 -19 16 -42 20 -50 6 -13 -22 -74 -40 -85 -9 -6 -104 133 -140 203
-12 24 -24 42 -26 39 -12 -12 103 -205 140 -236 20 -17 21 -45 0 -61 -13 -11
-23 -6 -67 38 l-52 51 -187 31 c-102 16 -192 30 -200 29 -22 -2 99 -26 245
-50 101 -16 137 -25 137 -36 0 -7 -10 -18 -22 -23 l-23 -9 24 0 c13 -1 45 -17
71 -36 l48 -35 -38 -77 c-49 -100 -65 -143 -101 -278 -33 -126 -32 -122 -20
-110 5 6 21 51 35 100 78 280 160 434 339 640 l70 80 -80 -80 -80 -80 -28 43
c-67 105 -97 258 -88 457 6 129 1 165 -11 73z m-71 -688 c3 -5 1 -10 -4 -10
-6 0 -11 5 -11 10 0 6 2 10 4 10 3 0 8 -4 11 -10z"/>
<path d="M2720 4573 c112 -54 215 -118 299 -188 153 -125 359 -248 451 -269
69 -16 221 -23 255 -11 40 13 -46 -52 -108 -82 -129 -63 -257 -84 -372 -60
-38 8 -79 18 -90 22 -15 6 -13 0 11 -26 48 -53 149 -231 138 -242 -3 -3 -13
-3 -22 0 -14 5 -15 4 -4 -8 10 -11 45 -14 143 -14 71 0 129 -1 129 -1 0 -1
-42 -18 -92 -38 -106 -40 -165 -55 -223 -56 l-40 -1 35 -18 c20 -10 68 -21
110 -24 46 -4 67 -3 55 3 -15 7 -9 9 27 9 51 1 75 -15 31 -21 -17 -3 -3 -7 37
-12 93 -11 279 22 394 69 14 6 8 -12 -28 -82 -82 -158 -214 -268 -365 -303
-110 -26 -321 9 -394 64 -19 14 -39 26 -45 26 -6 0 -14 5 -18 12 -4 7 -3 8 4
4 7 -4 17 -4 24 0 11 7 -137 63 -167 64 -5 0 27 -23 73 -50 46 -28 86 -50 90
-50 4 0 30 -19 57 -41 104 -86 202 -140 296 -164 35 -9 71 -19 79 -22 26 -10
-29 -21 -114 -22 -111 -1 -406 70 -406 99 0 3 11 17 25 30 30 28 26 38 -7 16
-15 -10 -52 -15 -113 -17 -83 -1 -90 0 -87 17 5 26 7 27 30 15 12 -6 31 -11
44 -11 18 0 13 5 -19 20 -109 49 -235 150 -351 280 -91 102 -119 142 -145 205
-16 40 -16 39 -16 -106 -1 -80 -3 -202 -6 -270 -4 -99 -2 -115 6 -79 5 25 13
123 17 219 l7 175 28 -43 c16 -23 77 -93 138 -155 l109 -114 -46 -7 c-26 -4
-42 -10 -36 -14 6 -3 -18 -17 -53 -30 -36 -12 -67 -26 -70 -31 -2 -4 43 10
102 31 59 22 111 39 116 39 5 0 39 -21 74 -46 l65 -46 -32 -32 c-21 -22 -47
-37 -82 -45 -58 -13 -162 -60 -201 -92 -15 -11 -35 -37 -44 -57 -9 -21 -19
-40 -21 -44 -2 -4 21 6 50 22 65 37 82 37 97 4 9 -21 14 -24 26 -14 8 7 22 9
31 6 15 -6 14 -9 -6 -31 -20 -21 -21 -27 -10 -40 10 -12 23 -15 49 -10 20 4
50 9 66 11 103 15 130 28 167 85 17 27 35 49 39 49 12 0 43 54 42 73 -2 22 2
21 42 -3 31 -19 32 -22 43 -127 22 -202 11 -438 -24 -522 -8 -20 -43 -78 -78
-131 -73 -109 -312 -359 -415 -434 -97 -71 -113 -68 -384 64 -119 58 -147 76
-141 89 18 43 13 61 -6 21 -31 -66 -67 -99 -128 -116 l-54 -16 88 -43 c107
-51 164 -70 269 -90 91 -17 173 -19 195 -5 12 8 12 10 -5 10 -19 1 -19 1 -1
11 11 7 25 8 39 2 19 -9 18 -11 -14 -31 -62 -38 -141 -53 -234 -43 -45 4 -88
11 -94 15 -17 11 -13 -13 7 -42 25 -36 37 -62 19 -39 -22 26 -41 23 -26 -5 7
-15 -2 -9 -27 16 -57 57 -142 112 -228 146 -83 33 -102 36 -108 18 -3 -7 -46
-13 -129 -15 -108 -4 -134 -1 -185 16 -57 20 -115 68 -154 129 -15 23 -15 23
-15 -10 -1 -18 -4 -51 -8 -73 -7 -35 -5 -42 14 -53 20 -13 21 -12 14 26 -8 47
6 62 25 27 7 -14 17 -25 22 -25 4 0 8 -4 8 -10 0 -5 -8 -7 -17 -4 -15 5 -15 4
-3 -4 8 -6 18 -9 22 -6 4 3 20 -4 35 -15 31 -23 99 -40 155 -41 l37 0 -44 -42
c-25 -24 -45 -48 -45 -54 0 -6 -9 -19 -19 -28 -11 -10 -25 -31 -32 -47 -9 -23
-14 -27 -21 -17 -6 9 -7 5 -3 -11 7 -22 -30 -121 -44 -121 -3 0 -21 20 -39 44
-23 30 -38 69 -54 132 -30 125 -39 143 -34 61 4 -43 15 -91 31 -125 l25 -57
-29 33 c-39 45 -67 124 -80 219 -6 43 -12 239 -15 435 l-5 356 52 34 c29 18
76 52 104 76 29 23 56 42 59 42 26 0 -51 -266 -89 -307 -11 -13 -15 -23 -9
-23 20 0 92 71 140 139 36 50 48 61 50 46 14 -80 72 -264 104 -328 111 -224
301 -289 453 -155 25 22 44 42 42 44 -2 3 -21 -11 -42 -31 -22 -19 -47 -35
-56 -35 -21 0 -122 75 -170 126 -44 47 -87 115 -159 249 -29 55 -61 112 -71
126 -17 24 -59 114 -59 125 0 6 111 -51 135 -70 11 -8 14 -16 8 -16 -7 0 -13
-5 -13 -11 0 -8 4 -8 14 0 12 10 20 10 38 0 13 -7 38 -12 57 -10 40 3 211 75
223 94 11 18 10 65 -3 89 -10 18 -8 19 13 13 21 -6 20 -4 -8 23 -57 55 -176
68 -294 32 -75 -23 -120 -26 -120 -7 0 6 7 41 16 77 8 36 19 90 23 120 5 30
16 105 25 165 10 61 20 125 22 144 5 34 7 32 49 -57 24 -51 67 -125 94 -165
48 -69 61 -94 43 -83 -4 2 -23 0 -42 -4 l-35 -9 35 1 c19 0 43 0 52 -1 10 -1
53 -30 96 -65 43 -34 104 -82 135 -105 35 -25 64 -56 74 -79 9 -20 19 -41 21
-46 11 -23 -126 85 -170 134 -28 30 -46 46 -40 34 19 -36 87 -99 176 -162 47
-34 88 -62 91 -62 2 0 -14 26 -36 58 -49 70 -39 76 58 32 37 -18 86 -39 108
-47 54 -20 198 -43 265 -43 l55 1 -64 29 c-85 40 -166 106 -190 155 -27 55
-44 165 -40 258 2 42 0 77 -5 77 -10 0 -2 -286 9 -314 8 -18 7 -18 -21 0 -16
10 2 -10 39 -46 38 -36 94 -82 125 -102 l57 -38 -35 0 c-64 0 -223 50 -336
105 -132 65 -267 158 -333 231 -90 98 -217 325 -227 404 -4 36 -20 112 -35
165 -6 19 -6 7 -3 -34 4 -35 10 -78 15 -95 5 -17 5 -32 0 -36 -5 -3 -15 -70
-21 -150 -14 -175 -55 -431 -70 -440 -6 -3 -9 -17 -8 -30 2 -18 -6 -29 -37
-47 -22 -12 -51 -23 -64 -23 -22 0 -23 3 -19 45 3 25 4 45 2 45 -2 0 -11 -15
-20 -32 -16 -33 -82 -99 -139 -141 l-30 -22 19 30 c74 114 147 275 145 323 0
9 -10 -11 -23 -45 -68 -183 -232 -350 -453 -462 -34 -17 -65 -31 -69 -31 -3 0
16 20 44 45 27 25 71 76 98 115 36 52 61 78 101 100 29 17 53 32 53 34 0 3
-24 -4 -52 -14 -29 -10 -78 -23 -108 -29 -95 -19 -150 -29 -150 -27 0 1 27 29
59 63 127 134 191 268 215 454 8 63 22 179 32 259 9 80 19 152 21 160 2 8 -2
5 -9 -7 -18 -30 -127 -109 -192 -139 -71 -33 -169 -33 -250 1 -33 13 -64 31
-68 40 -13 23 -31 19 -18 -4 5 -11 39 -34 75 -52 58 -28 71 -31 139 -27 48 2
76 0 76 -7 0 -5 -16 -86 -35 -178 -51 -252 -83 -349 -160 -482 -22 -40 -24
-46 -7 -30 11 11 39 58 63 104 41 82 63 162 141 505 l23 100 45 14 c25 8 65
28 89 44 24 16 45 28 46 26 4 -4 -31 -324 -44 -398 -27 -162 -137 -341 -271
-443 l-34 -26 112 6 c62 3 112 3 112 -1 0 -26 -115 -159 -175 -203 -29 -21
-29 -22 -7 -22 19 -1 22 -5 17 -22 -11 -34 -95 -148 -113 -153 -61 -17 -196
-38 -256 -39 -58 -2 -82 3 -128 25 -37 17 -58 33 -58 44 0 9 6 14 13 11 7 -2
26 9 42 25 17 17 47 41 68 55 22 13 36 27 33 30 -5 5 -79 -50 -118 -89 -10
-10 -20 -13 -23 -8 -3 5 27 37 67 72 82 71 223 209 193 187 -11 -8 -71 -58
-135 -113 -63 -54 -129 -105 -147 -114 -18 -8 -34 -21 -37 -29 -7 -17 57 -89
98 -110 41 -22 187 -20 281 2 39 9 86 19 106 22 l37 5 -20 -69 c-31 -107 -48
-175 -52 -209 -3 -17 -17 -49 -31 -70 -15 -22 -47 -80 -71 -131 -37 -77 -46
-106 -51 -172 -6 -77 0 -131 15 -131 4 0 6 33 6 72 -1 43 2 65 6 53 7 -18 8
-18 12 5 2 14 0 34 -5 45 -9 23 6 75 23 75 5 0 10 -4 10 -10 0 -5 -6 -10 -12
-10 -9 0 -10 -2 -2 -8 11 -7 11 -93 -1 -112 -10 -16 26 -186 61 -285 19 -55
48 -122 65 -149 33 -55 21 -48 -50 27 -53 56 -101 148 -101 194 0 17 -4 35
-10 38 -6 3 -10 -3 -10 -14 0 -18 -17 -65 -41 -113 -15 -31 -40 -176 -37 -214
3 -38 4 -37 16 21 7 33 18 83 25 110 12 49 12 49 14 15 6 -79 25 -225 33 -244
5 -13 7 7 7 54 0 44 7 99 17 134 l18 60 39 -46 c21 -25 60 -60 85 -77 26 -17
63 -54 82 -83 20 -29 73 -90 118 -136 l83 -82 -47 -79 c-57 -95 -75 -110 -104
-84 -20 18 -21 18 -10 -3 10 -19 6 -27 -33 -63 -50 -46 -45 -52 18 -19 47 24
100 25 136 2 20 -14 23 -22 18 -56 -3 -22 -15 -50 -27 -63 -42 -45 -178 -86
-230 -70 -33 10 -7 33 47 41 50 7 116 56 111 82 -4 21 -51 32 -88 22 -15 -4
-31 -6 -34 -2 -12 12 -5 40 14 57 15 14 17 21 9 31 -14 17 -40 4 -64 -32 -17
-26 -17 -27 11 -49 26 -21 27 -24 14 -54 -14 -35 -61 -75 -100 -85 -17 -5 -14
0 12 14 20 11 44 30 52 42 18 25 21 64 7 73 -14 8 -67 -44 -63 -63 2 -8 -2
-19 -10 -23 -18 -12 -66 -11 -73 1 -8 13 55 73 99 94 69 34 -12 12 -116 -31
-58 -25 -90 -93 -43 -93 28 0 16 -18 -20 -30 -28 -9 -39 -9 -50 0 -12 10 -15
9 -15 -6 0 -11 -9 -30 -20 -44 -31 -39 -23 -46 10 -10 l31 33 29 -28 c27 -26
33 -28 88 -22 33 4 95 18 138 32 44 13 95 25 114 25 71 1 159 61 186 127 13
29 12 37 -1 63 -18 35 -43 50 -84 50 -30 0 -41 13 -21 25 16 10 80 112 130
210 62 120 116 202 140 215 19 10 19 9 8 -17 -7 -15 -27 -45 -45 -66 -42 -48
-43 -60 0 -20 43 41 69 53 114 53 38 0 76 -18 101 -48 18 -24 16 -28 -33 -61
-43 -29 -48 -30 -73 -17 -32 17 -141 38 -153 30 -5 -3 -9 -23 -9 -44 0 -30 5
-40 20 -45 39 -12 22 -75 -21 -75 -19 0 -29 -5 -29 -15 0 -8 -13 -21 -30 -30
-32 -17 -42 -42 -13 -30 96 37 323 71 414 61 128 -15 363 -97 399 -141 15 -18
17 -60 13 -293 l-3 -133 -51 -55 c-61 -63 -48 -72 21 -14 26 22 50 40 52 40 3
0 10 -18 17 -40 6 -22 18 -40 25 -40 11 0 8 18 -11 78 -14 42 -27 104 -30 137
-5 52 -2 69 20 111 14 28 41 69 61 93 19 23 38 59 42 79 6 30 78 215 91 231 1
2 13 -4 25 -15 l21 -19 -17 31 c-18 30 -18 31 9 85 15 29 39 71 52 92 39 62
19 54 -25 -10 -50 -73 -91 -157 -128 -255 -27 -73 -44 -98 -44 -63 0 31 -54
75 -110 89 -51 12 -55 16 -61 47 -18 111 -116 178 -267 184 -69 3 -75 5 -92
31 -43 70 -107 104 -197 104 -24 0 -43 2 -43 4 0 10 107 241 157 339 61 119
151 261 204 321 40 46 144 96 198 96 51 0 137 -24 227 -62 124 -53 226 -175
241 -287 3 -22 9 -38 14 -35 11 6 11 92 -1 159 -4 28 -6 52 -4 54 7 7 55 -30
61 -47 3 -9 30 -79 60 -155 59 -151 138 -412 158 -522 44 -241 17 -550 -70
-806 -14 -40 -25 -76 -25 -81 0 -4 172 -8 381 -8 l381 0 -6 32 c-15 74 -16 73
41 76 l51 3 7 -56 7 -55 74 0 73 0 3 63 3 62 75 6 c50 4 22 6 -83 5 l-159 -1
6 40 c13 94 19 355 8 355 -7 0 -9 -16 -5 -47 3 -29 -3 -99 -16 -173 -11 -69
-18 -135 -15 -147 5 -18 1 -23 -22 -28 -78 -17 -87 -26 -96 -90 -3 -16 -14
-21 -57 -28 -30 -4 -56 -6 -57 -4 -2 2 4 59 12 128 22 171 14 476 -14 569 -52
176 -119 293 -261 462 -53 63 -144 174 -204 245 -59 72 -115 134 -124 137 -9
4 -13 9 -10 12 8 9 167 -33 194 -51 17 -12 23 -25 23 -53 0 -62 58 -125 176
-193 93 -53 316 -314 385 -451 17 -33 33 -58 35 -55 19 18 -171 291 -285 410
l-46 48 65 -29 c36 -15 93 -39 128 -51 51 -19 62 -27 62 -46 0 -20 13 -26 123
-58 186 -55 220 -61 255 -49 28 9 31 8 36 -14 16 -61 305 -154 482 -154 59 0
111 23 126 54 7 16 19 26 32 26 34 0 66 28 66 57 0 22 -3 24 -22 18 -68 -20
-95 -23 -151 -14 -74 12 -83 7 -17 -10 51 -13 79 -34 60 -46 -26 -16 -120 -23
-189 -14 -112 16 -353 91 -337 106 2 2 19 7 38 9 81 12 133 44 72 44 -48 0
-105 22 -102 39 7 35 158 21 242 -21 37 -19 39 -21 21 -34 -23 -17 -17 -23 33
-35 76 -17 186 21 154 53 -8 8 -15 8 -26 -1 -21 -18 -81 -3 -231 53 -66 25
-129 46 -140 46 -11 0 -42 -13 -69 -29 -47 -28 -48 -29 -27 -42 32 -21 26 -26
-34 -34 -39 -4 -72 -2 -112 10 -143 40 -223 67 -223 75 0 5 19 10 43 12 42 3
42 3 -43 32 -109 36 -404 184 -474 236 -47 35 -76 74 -76 99 0 5 12 12 27 16
23 5 32 0 61 -32 18 -21 26 -27 18 -13 -23 35 -20 48 17 70 29 18 97 28 97 14
0 -3 -10 -15 -22 -25 -22 -19 -21 -19 20 1 31 15 52 19 77 14 33 -6 49 -24 22
-24 -19 0 -57 -43 -57 -63 0 -24 74 -103 135 -143 27 -19 45 -34 40 -34 -10 0
-28 11 -130 74 -25 16 -49 26 -52 22 -4 -3 -4 -7 -2 -9 171 -117 252 -159 343
-181 17 -4 42 -16 57 -27 15 -10 34 -19 43 -19 8 0 19 -7 24 -16 10 -18 114
-64 144 -64 13 0 18 6 16 17 -2 10 -25 24 -60 36 -61 20 -76 37 -31 37 38 0
21 12 -29 21 -59 10 -260 96 -278 118 -8 11 -29 22 -46 25 -29 6 -144 98 -144
115 0 4 16 5 36 3 26 -3 39 -11 47 -29 14 -31 91 -71 161 -84 41 -7 60 -6 89
6 20 8 53 15 74 16 21 0 47 4 58 9 18 8 17 9 -7 9 -35 1 -35 7 -2 37 30 28 32
29 55 8 17 -15 17 -18 2 -40 -17 -26 -3 -33 17 -9 7 8 19 15 26 15 10 0 7 -12
-12 -40 -14 -21 -24 -44 -22 -51 6 -19 60 71 65 110 l4 36 -77 25 c-43 14 -80
31 -82 38 -3 9 3 11 20 8 12 -3 48 -7 78 -10 l55 -6 1 35 c1 40 -2 42 -28 18
-42 -38 -220 -21 -265 26 -10 10 -27 21 -38 25 -38 13 7 -22 66 -52 29 -16 52
-33 49 -38 -3 -5 -30 -8 -61 -6 -47 3 -59 0 -70 -15 -12 -16 -25 -19 -79 -17
-84 2 -82 2 -75 14 3 6 14 10 25 10 19 0 36 29 23 41 -14 13 -186 51 -230 50
-23 0 -61 -10 -83 -21 -36 -18 -52 -20 -123 -15 -45 4 -93 10 -107 15 -14 4
-51 14 -83 21 -35 7 -64 20 -72 31 -9 14 -14 16 -17 7 -3 -10 -21 -9 -78 7
-70 19 -73 21 -74 50 l-1 30 60 -1 c64 -2 136 20 188 57 17 12 73 32 126 46
79 20 130 25 286 29 180 5 199 3 360 -26 138 -25 173 -35 188 -52 19 -24 22
-55 6 -96 -8 -23 -8 -26 3 -15 8 8 13 35 12 68 0 29 2 54 4 54 2 0 12 -5 23
-10 23 -13 26 -66 4 -97 -21 -30 -98 -73 -148 -82 l-42 -9 42 -1 c57 -1 85 11
139 61 l46 43 -6 53 c-3 29 -25 105 -47 170 -61 175 -67 199 -70 318 -2 91 0
118 18 164 34 89 57 260 49 365 -7 94 -26 219 -32 212 -2 -2 1 -56 8 -121 20
-214 -13 -406 -94 -544 -51 -87 -219 -250 -298 -289 -36 -18 -78 -35 -95 -39
-29 -6 -29 -5 21 47 63 66 114 141 114 167 0 10 7 38 15 63 45 139 69 528 45
738 -5 47 -8 87 -5 89 2 2 39 -5 82 -17 99 -26 262 -45 329 -37 l51 6 12 -58
c7 -31 15 -79 18 -107 9 -86 16 -64 10 31 -4 51 -11 102 -16 116 -8 22 -5 25
36 42 24 10 45 17 47 15 2 -2 18 -84 35 -183 17 -98 36 -186 42 -195 7 -12 9
-6 4 24 -3 22 -12 94 -19 160 -16 134 -37 238 -61 304 -8 24 -14 45 -13 46 22
20 100 75 106 75 8 0 83 -123 192 -315 32 -55 70 -121 84 -147 23 -40 25 -50
15 -70 -6 -13 -18 -27 -25 -31 -19 -11 -18 -20 11 -83 14 -31 23 -60 20 -65
-4 -5 -2 -9 3 -9 5 0 12 -8 15 -18 20 -63 69 -200 77 -217 6 -11 14 -38 19
-60 7 -32 8 -24 4 35 -4 60 -16 100 -56 198 -28 67 -59 131 -69 142 -28 30 -6
31 42 1 48 -30 48 -30 165 -346 36 -95 83 -255 94 -318 6 -32 14 -64 18 -70 3
-7 46 -73 94 -147 99 -155 133 -218 165 -312 12 -37 40 -97 61 -135 114 -197
135 -269 113 -382 -7 -39 -20 -77 -28 -84 -13 -10 -14 -8 -8 13 4 14 9 57 13
96 5 63 3 78 -21 130 -34 75 -88 164 -98 164 -5 0 -4 -10 3 -21 22 -41 1 -148
-52 -264 -12 -27 -23 -56 -25 -63 -4 -22 -8 -22 -43 0 -25 16 -31 26 -26 42
30 97 32 161 10 289 -31 176 -44 201 -150 309 -52 53 -95 93 -95 89 0 -4 14
-20 31 -37 27 -26 30 -34 25 -70 -7 -55 -38 -125 -84 -189 l-39 -54 -54 40
c-29 23 -71 50 -92 61 -42 21 -167 48 -223 48 l-34 0 6 82 c3 46 7 88 9 94 6
22 -15 411 -26 472 -12 67 -6 89 16 58 8 -10 18 -15 24 -11 7 4 8 0 4 -11 -5
-13 -2 -16 8 -12 9 4 23 -4 35 -19 32 -42 99 -110 81 -83 -113 168 -217 349
-217 375 0 52 12 48 47 -14 43 -76 72 -102 44 -40 -11 24 -35 79 -54 122 -19
43 -38 81 -41 84 -3 4 -6 -23 -6 -58 0 -100 -18 -292 -35 -371 -16 -79 -43
-138 -81 -183 l-26 -30 7 30 c3 16 15 48 26 72 23 51 55 186 63 263 5 53 4 52
-10 -15 -17 -86 -68 -253 -97 -318 -12 -27 -36 -62 -54 -78 -19 -16 -30 -29
-26 -29 30 2 133 92 163 143 12 20 24 37 26 37 4 0 -1 -43 -17 -150 -11 -72
-44 -156 -63 -163 -7 -3 -16 -31 -20 -61 -8 -68 -43 -200 -64 -241 -28 -56
-65 -96 -105 -116 -50 -24 -69 -24 -110 -2 l-32 18 50 5 50 6 -40 12 c-79 24
-135 6 -85 -27 13 -9 36 -28 51 -42 17 -17 48 -30 87 -39 34 -7 59 -17 56 -21
-6 -10 8 -12 30 -3 9 3 16 12 16 20 0 8 5 14 10 14 6 0 10 15 10 34 0 51 26
63 35 16 6 -29 28 -45 90 -66 28 -9 63 -23 79 -32 29 -14 31 -13 52 13 12 15
24 23 28 17 8 -13 -3 -42 -17 -42 -6 0 -8 -3 -5 -6 9 -8 48 19 48 34 0 7 9 16
21 20 l20 8 -21 27 c-30 37 -92 79 -199 132 -89 44 -105 61 -78 83 9 8 25 4
57 -15 43 -24 50 -25 145 -19 237 14 412 -76 500 -258 36 -76 46 -117 23 -99
-7 6 -35 18 -63 27 -27 9 -68 27 -90 39 l-40 23 3 -37 c3 -29 -1 -40 -22 -56
-31 -25 -33 -33 -7 -33 11 0 23 12 31 31 15 36 18 36 160 -20 154 -60 295
-145 373 -224 150 -152 205 -265 214 -439 6 -99 -14 -248 -43 -330 l-13 -38
34 0 c39 0 40 2 24 29 -7 10 -9 30 -5 45 6 24 8 25 22 11 23 -22 29 -19 43 22
l14 37 26 -30 c14 -17 42 -49 61 -72 34 -40 37 -42 93 -42 l57 0 0 438 0 437
-33 20 c-62 38 -80 47 -96 50 -9 1 -15 8 -13 14 1 7 -4 11 -11 9 -24 -5 -128
124 -210 262 -82 137 -222 400 -214 400 3 0 132 -127 288 -281 156 -155 285
-277 287 -271 3 11 -84 163 -101 174 -7 4 -8 8 -4 8 5 0 -7 19 -26 43 -18 23
-55 76 -81 117 -26 41 -59 91 -74 111 -15 20 -49 68 -77 105 -27 38 -55 76
-62 84 -248 307 -296 365 -247 295 15 -22 52 -71 83 -110 49 -63 100 -128 161
-207 35 -46 320 -480 329 -501 10 -25 -26 8 -123 112 -159 170 -299 350 -412
531 -52 82 -184 326 -184 340 0 5 -20 42 -45 82 -25 40 -49 93 -54 118 -4 25
-25 83 -45 130 -20 46 -36 90 -36 97 0 6 -31 29 -70 50 -38 21 -70 42 -70 47
0 6 9 20 21 32 25 26 41 88 27 102 -6 6 -29 54 -53 109 -35 81 -86 193 -103
225 -8 16 123 -4 137 -21 11 -14 12 -11 7 19 -3 19 -6 77 -8 128 -1 51 -5 95
-10 98 -4 3 -8 14 -8 25 0 18 8 19 141 19 77 0 149 -5 160 -10 17 -10 19 -7
19 19 0 44 15 46 60 9 34 -28 40 -39 40 -73 0 -22 -3 -50 -6 -62 -6 -23 -6
-23 -46 9 -22 17 -44 41 -48 52 -9 21 -9 21 -9 0 -1 -13 19 -38 53 -67 30 -26
57 -47 59 -47 3 0 8 35 12 79 l7 78 78 6 c42 3 93 4 113 0 52 -8 200 15 301
48 49 16 96 29 105 29 9 0 33 5 54 11 l37 10 0 89 0 90 -93 0 c-106 0 -164 15
-332 83 -122 50 -171 77 -425 238 -96 62 -191 121 -210 132 -48 29 -112 78
-107 84 6 6 210 -110 372 -212 72 -44 155 -95 185 -112 163 -93 435 -162 560
-144 l55 9 -71 1 c-211 3 -432 78 -677 229 -266 164 -529 312 -554 312 -7 0
-62 25 -121 56 -59 31 -96 46 -82 34 14 -13 24 -27 23 -31 -2 -5 2 -9 9 -9 6
0 9 -2 6 -5 -2 -3 -34 4 -71 14 -106 29 -84 -4 46 -69 117 -58 441 -366 442
-419 0 -9 10 -17 23 -19 16 -2 22 -10 22 -27 0 -41 22 -74 72 -110 26 -19 50
-35 52 -35 3 0 21 -15 41 -33 27 -25 35 -39 33 -62 -1 -17 -9 -35 -17 -41 -15
-12 -7 -36 12 -33 7 1 20 -2 31 -6 26 -11 46 4 64 49 10 27 12 40 4 45 -6 4
-9 25 -7 49 2 23 -1 42 -6 42 -5 0 -9 7 -9 14 0 8 -11 27 -25 42 -27 29 -30
64 -7 72 7 2 16 -5 19 -16 5 -20 31 -37 41 -27 3 3 0 5 -6 5 -7 0 -12 5 -12
11 0 8 5 7 15 -1 9 -7 14 -18 12 -24 -4 -12 5 -25 48 -68 28 -28 28 -30 7 -23
l-24 7 20 -20 c24 -24 58 -33 55 -15 -2 8 4 10 14 6 11 -4 13 -8 5 -11 -28 -9
-10 -24 22 -18 22 4 37 2 41 -5 5 -8 1 -9 -14 -4 -11 3 -21 2 -21 -3 0 -14 48
-32 67 -26 17 5 17 5 1 -6 -10 -6 -18 -19 -17 -28 0 -10 3 -12 6 -4 2 6 12 12
21 12 15 0 15 -2 2 -10 -12 -8 -10 -10 10 -11 14 -1 37 -2 53 -3 15 -1 27 2
27 7 0 5 -9 7 -21 4 -11 -3 -27 -3 -35 0 -22 8 -16 33 9 34 13 1 6 5 -18 10
-22 5 -44 15 -50 21 -7 8 -4 9 10 3 11 -4 58 -11 104 -16 90 -10 97 -12 86
-29 -4 -6 -20 -8 -41 -4 -29 5 -33 4 -28 -9 3 -9 14 -19 24 -22 10 -3 24 -13
32 -22 12 -15 9 -16 -32 -9 -25 4 -67 9 -95 12 -57 6 -133 28 -186 55 -38 19
-57 16 -36 -5 7 -7 33 -27 60 -44 26 -18 47 -39 47 -45 0 -18 -55 -37 -126
-44 -54 -5 -64 -3 -83 16 -12 12 -19 26 -16 31 3 5 -6 8 -20 7 -14 -1 -29 -7
-33 -13 -10 -16 -190 19 -262 50 -30 14 -67 29 -83 35 -27 11 -27 11 -12 47
19 46 14 52 -22 26 -49 -34 -147 -70 -218 -80 -67 -9 -71 -8 -102 17 l-32 26
67 11 c94 17 178 49 226 86 39 30 141 142 159 175 17 28 -4 26 -36 -4 -50 -48
-94 -58 -257 -58 -154 0 -238 17 -335 68 l-40 21 56 7 c132 15 278 83 342 158
43 52 37 61 -30 45 -32 -8 -77 -14 -101 -14 -61 0 -185 27 -247 54 -65 29
-254 149 -355 226 -107 81 -225 154 -297 184 -89 37 -91 32 -3 -11z m1455
-643 c3 -5 1 -10 -4 -10 -6 0 -11 5 -11 10 0 6 2 10 4 10 3 0 8 -4 11 -10z
m-784 -59 c120 -57 196 -80 257 -78 42 2 42 2 19 -15 -12 -10 -44 -25 -72 -33
-53 -17 -215 -33 -204 -21 4 4 25 7 48 8 23 0 41 5 41 10 0 5 9 6 20 3 11 -3
20 -4 20 -1 0 2 -44 19 -97 37 -105 34 -164 72 -189 122 l-16 30 33 -6 c19 -3
82 -28 140 -56z m949 -15 c0 -2 -7 -9 -15 -16 -13 -11 -14 -10 -9 4 5 14 24
23 24 12z m-435 -67 c-54 -55 -68 -62 -91 -43 -18 14 -18 15 4 9 12 -4 22 -2
22 4 0 5 8 12 18 14 9 3 4 4 -13 3 -16 -2 -38 -6 -49 -11 -12 -5 -21 -3 -27 6
-7 11 -9 10 -9 -4 0 -11 12 -22 30 -28 16 -6 28 -15 25 -20 -5 -8 -77 -32
-100 -34 -5 0 -14 -3 -20 -7 -5 -3 -26 -9 -45 -13 -33 -6 -34 -6 -15 8 11 8
23 13 28 10 4 -2 7 -1 5 4 -2 10 32 71 53 93 13 13 28 17 60 13 28 -3 64 3 99
15 30 11 57 20 60 21 2 0 -14 -17 -35 -40z m-380 -199 c3 -5 -3 -10 -14 -10
-11 0 -23 5 -26 10 -3 6 3 10 14 10 11 0 23 -4 26 -10z m66 -6 c12 -14 11 -16
-5 -13 -11 2 -21 10 -24 17 -5 17 13 15 29 -4z m377 -40 c7 -3 8 -124 2 -124
-17 0 -110 43 -110 51 0 5 14 31 31 59 31 50 32 51 53 33 11 -10 22 -18 24
-19z m24 -257 l3 -99 -62 5 c-76 7 -169 51 -191 89 -15 26 -15 28 25 71 22 24
48 55 57 69 l17 25 74 -30 74 -31 3 -99z m-627 -144 c36 -11 74 -14 137 -10
79 5 89 4 98 -13 34 -64 -208 -35 -303 36 -19 14 -19 16 -2 9 11 -4 43 -14 70
-22z m-485 -66 c0 -33 -32 -118 -48 -126 -29 -15 -211 -55 -218 -48 -4 4 0 15
9 25 10 10 17 24 17 30 0 8 9 10 24 6 17 -4 31 1 45 15 25 25 41 27 41 6 0 -9
6 -12 15 -9 9 4 15 0 15 -10 0 -9 4 -16 10 -16 13 0 24 64 17 99 -7 36 -2 41
40 41 21 0 33 -5 33 -13z m-190 -62 c0 -28 -24 -34 -34 -9 -10 26 -7 34 14 34
15 0 20 -7 20 -25z m-882 -252 c-2 -10 -10 -18 -18 -18 -8 0 -16 8 -18 18 -2
12 3 17 18 17 15 0 20 -5 18 -17z m73 -28 c3 2 6 -10 7 -28 2 -32 1 -34 -63
-56 l-66 -24 -23 22 c-13 13 -27 18 -30 13 -3 -5 1 -15 9 -22 21 -18 9 -30
-31 -30 -46 0 -85 21 -123 67 -34 41 -32 45 19 62 33 11 36 10 58 -18 23 -29
25 -30 48 -14 19 12 27 13 38 3 8 -6 12 -18 9 -26 -3 -8 0 -14 6 -14 6 0 11 7
11 15 0 10 10 15 27 15 30 0 63 25 63 48 0 13 3 13 18 -1 10 -10 21 -15 23
-12z m-454 -28 c7 -7 -64 -133 -113 -200 -20 -27 -38 -47 -40 -44 -2 2 4 24
14 48 19 44 37 113 47 180 l5 36 41 -7 c22 -4 42 -10 46 -13z m21 -144 l-3
-38 -13 53 c-10 43 -10 58 0 75 12 21 13 20 16 -15 2 -21 2 -55 0 -75z m35 -7
c-4 -17 -3 -18 6 -6 8 12 11 8 11 -19 0 -18 4 -50 9 -70 5 -20 17 -72 27 -116
9 -44 22 -89 28 -100 5 -11 9 -27 8 -36 -2 -8 16 -38 39 -65 l41 -49 -47 49
c-31 33 -45 56 -42 68 3 10 2 18 -2 18 -13 0 -29 45 -56 150 -27 107 -44 235
-27 211 5 -7 7 -23 5 -35z m-568 -206 c0 -85 -2 -99 -15 -94 -8 3 -27 11 -42
16 -26 9 -28 14 -28 66 0 94 8 108 65 111 19 1 20 -5 20 -99z m-85 84 c0 -16
-23 -44 -35 -44 -18 0 -20 36 -2 43 17 8 37 8 37 1z m2179 -96 c-17 -143 -77
-261 -170 -340 -27 -23 -49 -46 -49 -51 0 -23 93 2 168 46 87 50 90 49 91 -34
l1 -46 -52 9 c-90 15 -339 -20 -452 -63 -28 -10 -52 -19 -54 -19 -2 0 30 27
70 59 136 110 344 338 409 450 19 32 37 57 40 55 3 -1 2 -31 -2 -66z m-2199
11 c0 -17 -3 -19 -14 -10 -12 10 -17 9 -24 -6 -6 -10 -27 -36 -47 -58 l-37
-39 26 51 c36 73 96 111 96 62z m15 -133 c-14 -46 -68 -161 -87 -183 -26 -32
-27 -8 0 40 16 28 42 82 57 120 32 75 50 90 30 23z m215 -63 c0 -13 -4 -43 -9
-66 -33 -149 -34 -158 -15 -178 13 -15 17 -35 16 -87 l-1 -67 15 48 c8 27 19
83 23 125 7 60 9 67 10 31 0 -26 -4 -71 -10 -100 -25 -128 -28 -219 -13 -347
16 -137 35 -232 61 -300 24 -64 26 -44 3 24 -44 126 -64 433 -32 490 12 21 9
27 38 -70 25 -84 95 -168 157 -189 7 -2 -10 -51 -51 -138 -34 -74 -67 -141
-72 -149 -5 -8 -24 -44 -41 -80 -29 -62 -31 -64 -45 -45 -36 47 -58 107 -80
210 -19 95 -22 103 -23 60 0 -62 37 -261 60 -316 9 -24 4 -38 -41 -118 l-51
-91 -27 19 c-103 74 -269 306 -298 416 -18 64 -17 77 2 43 8 -16 19 -28 25
-28 6 0 8 -7 5 -16 -3 -8 -2 -12 4 -9 6 3 10 2 10 -4 0 -5 -6 -12 -12 -15 -7
-3 -3 -3 8 -1 22 6 54 -17 54 -37 0 -6 14 -34 32 -62 17 -28 46 -75 64 -104
35 -58 132 -167 140 -159 3 3 -11 28 -31 55 -42 59 -113 210 -143 302 -30 94
-42 200 -42 382 0 89 -2 159 -4 157 -10 -10 -20 -122 -19 -219 0 -116 23 -261
53 -347 11 -31 18 -58 16 -61 -8 -7 -43 70 -61 133 -21 74 -35 318 -23 400 17
114 19 150 10 174 -7 21 -4 29 20 49 16 14 42 50 59 81 48 91 99 167 99 149 0
-9 -4 -19 -9 -22 -10 -6 -9 -71 1 -71 17 0 58 47 58 66 0 15 4 19 16 15 13 -5
15 -1 11 21 -4 16 -4 22 -1 16 8 -19 24 -16 24 5 0 27 28 62 45 56 8 -4 15
-17 15 -31z m3245 -3 c9 -16 13 -30 11 -30 -3 0 -12 14 -21 30 -9 17 -13 30
-11 30 3 0 12 -13 21 -30z m-3573 -22 c-9 -9 -12 -7 -12 12 0 19 3 21 12 12 9
-9 9 -15 0 -24z m194 6 c-4 -9 -9 -15 -11 -12 -3 3 -3 13 1 22 4 9 9 15 11 12
3 -3 3 -13 -1 -22z m-212 -91 c-15 -26 -29 -42 -32 -35 -5 15 46 97 55 88 3
-3 -7 -27 -23 -53z m1326 -63 c22 -11 40 -25 40 -31 0 -5 6 -9 13 -8 6 1 23
-2 37 -8 21 -9 18 -10 -22 -9 -25 1 -44 4 -41 9 2 4 -3 7 -13 7 -13 0 -14 -3
-5 -14 9 -11 9 -15 -1 -19 -7 -2 -2 -2 12 0 24 4 24 3 -5 -18 l-30 -21 27 6
c23 5 26 4 21 -11 -6 -15 -4 -16 9 -6 8 7 17 10 21 7 3 -3 8 4 12 15 3 12 11
18 17 15 7 -4 6 -9 -2 -14 -22 -13 -3 -40 28 -40 25 0 29 3 27 29 -1 24 2 28
19 26 30 -3 126 -53 126 -66 0 -5 4 -8 8 -5 5 3 9 0 9 -7 0 -9 -20 -12 -66
-12 -93 2 -113 4 -108 13 3 4 -11 7 -31 8 -20 0 -38 6 -40 12 -2 7 -8 9 -13 6
-5 -3 -52 11 -104 32 l-94 37 45 28 c24 16 47 36 50 44 8 19 7 19 54 -5z
m2364 -16 c3 -8 2 -12 -4 -9 -6 3 -10 10 -10 16 0 14 7 11 14 -7z m-3692 -79
c23 7 23 7 3 -9 -26 -20 -41 -20 -49 0 -11 28 -6 40 9 21 10 -14 20 -17 37
-12z m1398 5 c0 -5 -4 -10 -10 -10 -5 0 -10 5 -10 10 0 6 5 10 10 10 6 0 10
-4 10 -10z m-1495 -79 c-14 -23 -28 -41 -31 -41 -3 0 4 15 15 33 11 19 17 38
13 42 -4 5 -1 5 6 1 8 -5 12 1 13 21 1 22 3 24 6 6 2 -12 -7 -39 -22 -62z
m452 57 c-3 -8 -6 -5 -6 6 -1 11 2 17 5 13 3 -3 4 -12 1 -19z m2300 0 c-3 -8
-6 -5 -6 6 -1 11 2 17 5 13 3 -3 4 -12 1 -19z m313 -35 c-11 -17 -11 -17 -6 0
3 10 6 24 7 30 0 9 2 9 5 0 3 -7 0 -20 -6 -30z m-500 11 c0 -2 -16 -4 -35 -4
-19 0 -35 4 -35 8 0 4 16 6 35 4 19 -2 35 -6 35 -8z m191 1 c11 6 11 5 2 -5
-12 -14 -33 -6 -33 13 0 8 3 7 9 -2 5 -8 14 -10 22 -6z m-46 -16 c-7 -10 5
-12 45 -10 20 2 22 0 10 -8 -13 -9 -12 -11 4 -11 11 0 17 -2 14 -5 -3 -3 -32
1 -64 9 -33 9 -77 20 -99 25 -34 8 -30 8 24 3 51 -4 63 -3 56 8 -5 9 -4 11 4
6 6 -4 9 -12 6 -17z m-2690 -155 c-31 -52 -49 -53 -53 -1 -3 29 5 51 35 99
l38 62 3 -58 c3 -47 -2 -65 -23 -102z m71 108 c5 -25 3 -32 -10 -32 -12 0 -16
10 -16 42 0 48 16 42 26 -10z m2898 -149 c-4 -16 -10 -32 -15 -37 -7 -8 -4 17
7 52 7 24 14 11 8 -15z m-2930 -28 c-4 -9 -15 -20 -25 -26 -11 -5 -19 -15 -18
-22 0 -9 2 -9 6 1 2 6 8 12 13 12 5 0 -3 -30 -17 -67 -41 -112 -41 -113 -43
-73 -1 19 -1 45 -1 57 1 11 -3 24 -8 28 -6 3 -11 26 -11 51 0 36 3 44 18 44
10 0 23 -5 29 -11 8 -8 17 -7 34 5 29 20 30 20 23 1z m1466 -21 c0 -8 -5 -12
-10 -9 -6 4 -8 11 -5 16 9 14 15 11 15 -7z m1447 -56 c-3 -8 -6 -5 -6 6 -1 11
2 17 5 13 3 -3 4 -12 1 -19z m-2893 -123 c3 -60 8 -123 11 -140 6 -29 6 -29
-34 15 -22 25 -42 55 -46 68 -7 28 45 200 55 181 4 -8 10 -63 14 -124z m2877
78 c-12 -20 -14 -14 -5 12 4 9 9 14 11 11 3 -2 0 -13 -6 -23z m-321 -37 c0 14
46 6 60 -11 11 -14 3 -45 -12 -45 -5 0 -7 -4 -4 -9 3 -5 -21 -12 -55 -16 -97
-11 -245 43 -211 77 9 9 12 9 12 0 0 -6 6 -9 14 -6 12 4 32 -3 101 -35 6 -2 4
3 -4 13 -18 22 -8 31 18 17 17 -9 24 -8 42 10 17 17 23 19 30 8 5 -8 9 -9 9
-3z m294 -72 c9 -3 16 -12 16 -20 0 -8 5 -14 11 -14 5 0 8 -4 5 -9 -4 -5 16
-17 44 -26 27 -9 50 -21 50 -27 0 -6 -6 -8 -14 -5 -8 3 -49 14 -90 23 -42 10
-76 22 -76 26 0 9 30 58 35 58 2 0 10 -3 19 -6z m44 -100 c35 -15 36 -16 18
-30 -29 -21 -40 -17 -53 16 -13 35 -14 35 35 14z m-128 -14 c0 -21 -32 -34
-71 -28 -22 3 -20 5 16 24 52 28 55 28 55 4z m-2940 -43 c0 -5 -4 -5 -10 -2
-5 3 -10 14 -10 23 0 15 2 15 10 2 5 -8 10 -19 10 -23z m2519 -24 c77 -31 89
-39 65 -41 -38 -5 -145 28 -137 41 4 6 0 8 -11 4 -10 -4 -15 -3 -11 3 3 6 0
10 -8 10 -7 0 -14 7 -14 15 0 9 5 14 11 11 6 -3 53 -22 105 -43z m1281 -118
c0 -5 -5 -3 -10 5 -5 8 -10 20 -10 25 0 6 5 3 10 -5 5 -8 10 -19 10 -25z
m-3241 -25 c20 -28 21 -50 2 -50 -4 0 -15 18 -24 40 -18 48 -9 52 22 10z
m3276 -28 c-3 -3 -11 0 -18 7 -9 10 -8 11 6 5 10 -3 15 -9 12 -12z m-465 -12
c13 -8 13 -10 -2 -10 -9 0 -20 5 -23 10 -8 13 5 13 25 0z m-2368 -202 c85 -25
163 -135 108 -153 -11 -4 -59 -1 -104 6 l-84 13 -6 45 c-3 25 -9 58 -12 74 -6
25 -4 27 26 27 18 0 50 -5 72 -12z m3154 -20 l29 -33 -32 29 c-31 28 -38 36
-30 36 2 0 16 -15 33 -32z m-3332 -10 c9 -35 7 -88 -3 -88 -6 0 -22 16 -38 36
l-27 36 23 19 c30 24 37 24 45 -3z m3407 -75 c13 -16 12 -17 -3 -4 -17 13 -22
21 -14 21 2 0 10 -8 17 -17z m57 -88 c-3 -3 -9 2 -12 12 -6 14 -5 15 5 6 7 -7
10 -15 7 -18z m-2993 -47 c15 -14 30 -41 36 -66 9 -40 7 -49 -21 -98 -18 -30
-32 -54 -33 -54 -1 0 -2 40 -2 89 0 79 -3 92 -22 113 -13 14 -23 27 -23 31 0
15 41 6 65 -15z m-1005 -115 c-1 -24 -28 -41 -92 -57 -34 -8 -35 3 -3 38 17
19 34 26 60 26 19 0 35 -3 35 -7z m-319 -66 c-16 -16 -26 0 -10 19 9 11 15 12
17 4 2 -6 -1 -17 -7 -23z m54 -37 c19 -1 19 -1 2 -11 -19 -11 -47 3 -47 24 0
7 4 7 12 -1 7 -7 21 -12 33 -12z m4322 -62 c-3 -8 -6 -5 -6 6 -1 11 2 17 5 13
3 -3 4 -12 1 -19z m-1529 -185 c-2 -9 -7 -17 -13 -17 -5 0 -27 -3 -47 -6 -29
-6 -41 -3 -53 10 -21 23 -9 28 63 29 45 1 53 -2 50 -16z"/>
<path d="M3735 3739 c-5 -15 -9 -18 -15 -9 -6 9 -13 5 -25 -14 -10 -15 -15
-30 -11 -33 4 -4 9 3 13 15 3 12 10 22 15 22 6 0 8 -7 4 -15 -3 -8 -1 -15 4
-15 6 0 10 5 10 10 0 6 7 10 16 10 14 0 15 2 3 17 -13 15 -12 15 9 4 13 -7 28
-10 35 -7 8 3 7 5 -2 5 -8 1 -22 8 -32 17 -16 14 -18 14 -24 -7z"/>
<path d="M1851 2698 c-14 -23 -14 -23 8 -4 22 20 25 26 13 26 -4 0 -13 -10
-21 -22z"/>
<path d="M834 2014 c-44 -103 -46 -110 -60 -239 -4 -33 -4 -58 -1 -55 3 3 8
32 12 65 4 33 12 69 19 80 7 11 19 41 26 67 11 37 17 45 27 36 8 -6 17 -8 20
-4 10 10 -13 42 -26 38 -9 -2 -9 3 -1 19 7 11 9 23 6 26 -3 3 -13 -12 -22 -33z"/>
<path d="M850 1919 c0 -5 5 -7 10 -4 6 3 10 8 10 11 0 2 -4 4 -10 4 -5 0 -10
-5 -10 -11z"/>
<path d="M739 1853 c-5 -15 -9 -45 -7 -67 3 -37 4 -35 14 27 11 72 9 82 -7 40z"/>
<path d="M1005 1750 c3 -5 8 -10 11 -10 2 0 4 5 4 10 0 6 -5 10 -11 10 -5 0
-7 -4 -4 -10z"/>
<path d="M961 1614 c0 -11 3 -14 6 -6 3 7 2 16 -1 19 -3 4 -6 -2 -5 -13z"/>
<path d="M952 1570 c0 -14 2 -19 5 -12 2 6 2 18 0 25 -3 6 -5 1 -5 -13z"/>
<path d="M927 1494 c-4 -4 -7 -14 -7 -23 0 -11 3 -12 11 -4 6 6 10 16 7 23 -2
6 -7 8 -11 4z"/>
<path d="M922 1410 c0 -19 2 -27 5 -17 2 9 2 25 0 35 -3 9 -5 1 -5 -18z"/>
<path d="M962 1405 c0 -16 2 -22 5 -12 2 9 2 23 0 30 -3 6 -5 -1 -5 -18z"/>
<path d="M897 1390 c-5 -19 -9 -22 -16 -12 -4 8 -17 12 -27 10 -28 -5 -20 -53
27 -167 47 -114 58 -128 48 -59 -4 29 -8 85 -9 123 -2 39 -5 84 -9 100 l-7 30
-7 -25z"/>
<path d="M666 1184 c-3 -8 -2 -12 3 -9 5 3 12 -4 16 -15 3 -11 10 -20 15 -20
5 0 2 14 -6 30 -18 35 -20 36 -28 14z"/>
<path d="M705 1121 c-3 -5 -2 -12 3 -15 5 -3 9 1 9 9 0 17 -3 19 -12 6z"/>
<path d="M1987 1973 c5 -12 2 -15 -8 -11 -8 3 -20 0 -26 -7 -10 -10 -9 -16 3
-26 12 -10 13 -9 8 7 -5 16 -3 15 14 -4 12 -13 23 -18 27 -12 3 5 1 10 -4 10
-15 0 -14 27 1 36 8 5 9 2 5 -9 -7 -19 1 -21 22 -8 11 7 7 13 -17 25 -29 15
-31 15 -25 -1z"/>
<path d="M1909 1923 c-13 -16 -12 -17 4 -4 9 7 17 15 17 17 0 8 -8 3 -21 -13z"/>
<path d="M1948 1903 c6 -2 18 -2 25 0 6 3 1 5 -13 5 -14 0 -19 -2 -12 -5z"/>
<path d="M1980 1890 c-9 -6 -10 -10 -3 -10 6 0 15 5 18 10 8 12 4 12 -15 0z"/>
<path d="M2180 1870 c-8 -5 -11 -12 -8 -16 4 -3 14 1 23 10 18 17 9 21 -15 6z"/>
<path d="M2211 1857 c-9 -12 -7 -16 11 -20 12 -4 19 -9 16 -12 -3 -4 -16 -1
-28 5 -14 8 -26 8 -32 2 -6 -6 3 -12 23 -16 37 -7 53 3 47 30 -4 23 -22 28
-37 11z"/>
<path d="M2270 1820 c19 -13 30 -13 30 0 0 6 -10 10 -22 10 -19 0 -20 -2 -8
-10z"/>
<path d="M582 1546 c-6 -14 -8 -36 -3 -53 7 -26 8 -24 14 21 8 57 5 66 -11 32z"/>
<path d="M3416 4535 c10 -8 23 -15 28 -15 6 0 1 7 -10 15 -10 8 -23 15 -28 15
-6 0 -1 -7 10 -15z"/>
<path d="M1464 4452 c-118 -77 -246 -233 -364 -442 -29 -52 -71 -126 -93 -165
-42 -74 -161 -239 -193 -267 -28 -24 -111 -58 -144 -58 -16 0 -32 -4 -35 -10
-10 -16 26 -12 95 11 50 17 74 34 117 78 62 64 141 179 203 296 159 296 278
454 407 540 65 44 79 55 72 55 -3 0 -32 -17 -65 -38z"/>
<path d="M345 4400 c-17 -19 -17 -21 9 -55 62 -81 257 -272 312 -305 57 -35
60 -35 179 -36 l120 -2 -105 7 c-142 8 -187 31 -324 164 -113 109 -186 194
-186 214 0 8 14 13 38 13 27 0 33 3 22 10 -23 15 -45 12 -65 -10z"/>
<path d="M395 4362 c6 -6 35 -13 65 -17 64 -6 41 8 -30 20 -31 5 -42 4 -35 -3z"/>
<path d="M540 4336 c0 -15 50 -103 69 -123 29 -31 92 -62 171 -84 80 -23 97
-24 81 -5 -9 11 -3 14 34 19 55 6 58 8 49 41 -5 20 -16 28 -48 37 -46 12 -126
55 -126 68 0 10 -101 36 -177 46 -29 4 -53 4 -53 1z m134 -132 c3 -8 2 -12 -4
-9 -6 3 -10 10 -10 16 0 14 7 11 14 -7z"/>
<path d="M845 4280 c17 -4 44 -8 60 -8 l30 0 -30 8 c-16 4 -43 8 -60 8 l-30 0
30 -8z"/>
<path d="M984 4181 c12 -13 15 -27 11 -42 -5 -14 -4 -19 4 -15 15 9 14 49 -1
64 -20 20 -32 13 -14 -7z"/>
<path d="M3595 4070 c-33 -10 -71 -23 -85 -29 -22 -10 -20 -11 15 -5 48 7 126
33 140 45 12 12 2 10 -70 -11z"/>
<path d="M4412 3754 c10 -10 20 -15 24 -12 3 4 -5 12 -18 18 -22 12 -22 12 -6
-6z"/>
<path d="M4598 3603 c7 -3 16 -2 19 1 4 3 -2 6 -13 5 -11 0 -14 -3 -6 -6z"/>
<path d="M4375 3510 c-3 -6 1 -7 9 -4 18 7 21 14 7 14 -6 0 -13 -4 -16 -10z"/>
<path d="M5059 3379 c-124 -94 -252 -139 -409 -144 -52 -2 -108 -8 -123 -14
-16 -6 -59 -14 -97 -17 -62 -6 -73 -4 -115 20 -56 31 -72 34 -30 5 56 -38 125
-70 119 -55 -4 10 6 14 41 14 25 1 51 4 57 8 6 4 68 11 137 15 88 5 145 13
191 29 74 25 215 101 263 141 52 44 26 42 -34 -2z"/>
<path d="M4060 3305 c23 -61 40 -82 79 -97 45 -18 51 -16 51 23 0 24 -9 33
-63 64 -35 19 -67 35 -70 35 -4 0 -2 -11 3 -25z"/>
<path d="M3094 3308 c9 -5 23 -5 32 0 12 6 7 9 -16 9 -23 0 -28 -3 -16 -9z"/>
<path d="M3684 3222 c8 -15 24 -36 35 -46 19 -18 19 -15 -5 27 -27 49 -55 67
-30 19z"/>
<path d="M4216 3239 c-25 -92 -26 -112 -11 -136 24 -35 59 -49 91 -34 23 10
26 10 20 -4 -3 -9 -6 -19 -6 -21 0 -2 -16 -4 -36 -4 -50 0 -104 53 -104 103 0
30 -4 37 -29 45 -16 6 -31 8 -34 6 -3 -3 3 -37 13 -75 10 -39 26 -114 36 -167
l17 -96 -81 -77 c-44 -43 -76 -79 -70 -81 6 -2 38 25 71 59 33 35 65 63 70 63
6 0 51 -28 101 -62 95 -64 126 -88 89 -69 -24 12 -28 7 -24 -28 2 -7 -2 -10
-8 -6 -6 3 -11 -1 -11 -10 0 -8 -7 -18 -16 -22 -9 -3 -13 -12 -9 -21 3 -8 0
-19 -6 -23 -19 -11 44 -39 124 -54 40 -8 86 -21 102 -29 38 -20 64 -20 71 -1
7 18 45 20 62 3 7 -7 13 -26 13 -42 2 -27 3 -26 8 8 6 42 31 63 31 27 0 -11
13 -56 29 -101 16 -44 26 -82 23 -84 -4 -2 -27 4 -52 13 -45 17 -45 18 -43 62
l1 44 -11 -43 c-7 -23 -18 -47 -26 -52 -22 -13 1 -35 56 -54 57 -20 103 -20
146 -2 34 14 87 69 86 89 0 7 -5 2 -11 -10 -6 -13 -17 -23 -23 -23 -7 0 -40
36 -74 80 -34 44 -67 80 -73 80 -12 0 -12 -1 77 -103 62 -73 62 -87 3 -87 -33
0 -36 4 -70 104 -41 116 -35 119 92 42 50 -30 90 -51 90 -47 0 6 -74 53 -162
103 -33 18 -58 58 -58 92 0 15 3 17 8 8 11 -16 40 -6 46 16 3 10 4 46 3 82 0
36 -3 56 -5 45 -6 -33 -18 -38 -56 -25 l-35 11 6 97 c5 83 9 99 27 112 12 8
24 14 29 12 4 -1 7 5 7 14 0 13 3 14 14 5 23 -19 0 47 -29 83 -19 24 -30 29
-81 31 -61 4 -142 25 -191 50 -15 8 -33 15 -39 15 -9 0 -84 42 -146 84 -22 14
-29 15 -32 5z m42 -76 c11 -10 28 -30 37 -45 15 -25 15 -28 2 -34 -28 -10 -60
1 -80 27 -15 22 -17 30 -8 48 14 26 23 26 49 4z m142 -53 c22 -13 10 -18 -33
-12 -29 3 -41 11 -52 33 -22 41 -19 43 28 14 23 -14 49 -30 57 -35z m90 -45
c33 -24 90 -98 90 -117 0 -4 -31 23 -70 61 -38 39 -70 73 -70 76 0 11 17 4 50
-20z m-70 -2 c67 -47 90 -86 90 -151 0 -36 -52 -82 -92 -82 -73 1 -170 72
-139 103 10 9 11 9 7 -3 -11 -29 27 -61 74 -65 25 -1 53 -6 62 -10 28 -11 57
12 64 52 8 45 -24 114 -62 132 -32 14 -34 14 -34 -4 0 -24 -34 -36 -56 -20
-18 14 -18 16 9 40 33 30 44 31 77 8z m-230 -45 c0 -30 -25 -15 -28 17 -3 25
-2 27 12 16 9 -8 16 -22 16 -33z m426 -13 c19 -71 29 -185 17 -185 -5 0 -15
26 -22 58 -7 31 -23 77 -35 102 -18 35 -20 49 -12 63 19 29 39 15 52 -38z
m-384 -1 c-5 -36 -9 -41 -23 -27 -15 15 -2 66 14 60 7 -2 11 -16 9 -33z m41
-15 c-4 -15 -8 -17 -14 -8 -8 14 -3 29 11 29 4 0 6 -9 3 -21z m-45 -55 c6 -31
61 -81 115 -104 59 -26 119 -22 149 8 25 24 40 90 27 114 -17 31 5 20 36 -19
34 -44 38 -99 10 -153 l-17 -33 -21 22 -22 22 23 19 c12 10 22 24 22 31 0 9
-4 8 -12 -3 -56 -68 -197 -64 -265 9 -18 19 -33 31 -33 26 0 -15 41 -75 47
-70 3 4 19 -1 36 -10 17 -8 62 -17 100 -19 43 -2 76 -9 86 -18 15 -13 28 -18
99 -32 16 -3 22 -11 22 -30 0 -21 -4 -25 -17 -19 -10 4 -63 14 -118 22 -124
18 -137 22 -110 33 17 7 15 9 -12 9 -21 1 -38 9 -51 26 -11 14 -23 25 -27 25
-5 0 0 -9 10 -20 11 -13 14 -20 6 -20 -7 0 -34 22 -60 49 -34 35 -54 66 -69
113 -12 35 -22 68 -22 72 0 16 65 -31 68 -50z m-28 -95 c0 -6 -4 -7 -10 -4 -5
3 -10 11 -10 16 0 6 5 7 10 4 6 -3 10 -11 10 -16z m407 -60 c-1 -18 -9 -35
-16 -37 -10 -3 -12 2 -8 19 4 13 7 38 7 54 1 24 2 27 10 13 6 -9 9 -31 7 -49z
m-23 -118 c3 -5 -5 -11 -19 -13 -17 -4 -25 -1 -25 8 0 15 36 19 44 5z m122 -6
c21 -8 33 -19 29 -25 -5 -8 -12 -7 -23 3 -10 8 -26 19 -37 25 -29 16 -10 14
31 -3z m-36 -62 c0 -32 -16 -46 -44 -39 -28 7 -33 25 -14 44 19 19 58 15 58
-5z"/>
<path d="M4443 2743 c9 -2 25 -2 35 0 9 3 1 5 -18 5 -19 0 -27 -2 -17 -5z"/>
<path d="M1658 3013 c7 -3 16 -2 19 1 4 3 -2 6 -13 5 -11 0 -14 -3 -6 -6z"/>
<path d="M1560 2999 c0 -8 70 0 80 8 2 2 -15 3 -38 2 -23 -2 -42 -6 -42 -10z"/>
<path d="M1733 2913 c15 -2 37 -2 50 0 12 2 0 4 -28 4 -27 0 -38 -2 -22 -4z"/>
<path d="M3910 2811 c0 -6 4 -11 10 -11 5 0 7 -7 4 -15 -4 -8 -4 -15 -1 -15
13 0 14 30 1 40 -10 9 -14 9 -14 1z"/>
<path d="M4751 2784 c0 -11 3 -14 6 -6 3 7 2 16 -1 19 -3 4 -6 -2 -5 -13z"/>
<path d="M3720 2650 c6 -11 13 -20 16 -20 2 0 0 9 -6 20 -6 11 -13 20 -16 20
-2 0 0 -9 6 -20z"/>
<path d="M4743 2533 c15 -2 37 -2 50 0 12 2 0 4 -28 4 -27 0 -38 -2 -22 -4z"/>
<path d="M4863 2523 c9 -2 23 -2 30 0 6 3 -1 5 -18 5 -16 0 -22 -2 -12 -5z"/>
<path d="M2523 2289 c-18 -12 -33 -23 -33 -25 0 -7 58 25 65 36 9 14 5 13 -32
-11z"/>
<path d="M1311 2123 c38 -89 51 -113 59 -108 5 3 6 -4 3 -15 -11 -40 112 -116
206 -126 l46 -5 -71 34 c-83 40 -163 116 -219 206 -21 34 -39 61 -41 61 -2 0
6 -21 17 -47z"/>
<path d="M4152 1960 c0 -19 2 -27 5 -17 2 9 2 25 0 35 -3 9 -5 1 -5 -18z"/>
<path d="M4161 1894 c0 -11 3 -14 6 -6 3 7 2 16 -1 19 -3 4 -6 -2 -5 -13z"/>
<path d="M1181 1824 c0 -11 3 -14 6 -6 3 7 2 16 -1 19 -3 4 -6 -2 -5 -13z"/>
<path d="M1330 1790 c8 -5 20 -10 25 -10 6 0 3 5 -5 10 -8 5 -19 10 -25 10 -5
0 -3 -5 5 -10z"/>
<path d="M4071 1770 c0 -14 4 -34 9 -45 8 -18 9 -18 9 5 0 14 -4 34 -9 45 -8
18 -9 18 -9 -5z"/>
<path d="M4186 1689 c16 -20 31 -34 33 -32 3 2 -10 18 -29 36 l-34 32 30 -36z"/>
<path d="M4800 1626 c0 -2 8 -10 18 -17 15 -13 16 -12 3 4 -13 16 -21 21 -21
13z"/>
<path d="M4849 1562 c5 -9 19 -26 32 -37 19 -16 18 -13 -5 18 -30 39 -43 49
-27 19z"/>
<path d="M4922 1469 c13 -17 32 -44 43 -59 84 -118 149 -200 153 -196 8 8
-201 286 -215 286 -2 0 6 -14 19 -31z"/>
<path d="M491 1424 c0 -11 3 -14 6 -6 3 7 2 16 -1 19 -3 4 -6 -2 -5 -13z"/>
<path d="M3786 1319 c3 -5 14 -14 25 -19 15 -8 19 -7 19 3 0 8 -11 17 -25 19
-13 3 -22 1 -19 -3z"/>
<path d="M3871 1307 c2 -2 20 -14 39 -26 l35 -23 -28 26 c-15 14 -33 26 -39
26 -6 0 -9 -1 -7 -3z"/>
<path d="M3136 1291 c-7 -10 101 -67 110 -58 4 3 -11 13 -32 22 -21 9 -46 23
-55 31 -10 9 -19 11 -23 5z"/>
<path d="M3849 1233 c34 -41 39 -77 16 -110 -15 -21 -14 -23 21 -38 103 -43
106 24 6 128 -63 64 -90 77 -43 20z"/>
<path d="M3487 1199 c7 -7 15 -10 18 -7 3 3 -2 9 -12 12 -14 6 -15 5 -6 -5z"/>
<path d="M490 886 c0 -2 7 -7 16 -10 8 -3 12 -2 9 4 -6 10 -25 14 -25 6z"/>
<path d="M515 850 c-3 -5 -1 -10 4 -10 6 0 11 5 11 10 0 6 -2 10 -4 10 -3 0
-8 -4 -11 -10z"/>
<path d="M558 803 c6 -2 9 -10 6 -15 -4 -7 -2 -8 5 -4 13 9 5 26 -12 25 -9 0
-8 -2 1 -6z"/>
<path d="M613 746 c18 -19 49 -38 70 -44 49 -14 39 4 -17 27 -23 10 -47 26
-55 35 -7 9 -17 16 -22 16 -4 0 7 -15 24 -34z"/>
<path d="M4742 520 c0 -14 2 -19 5 -12 2 6 2 18 0 25 -3 6 -5 1 -5 -13z"/>
<path d="M4747 382 c-10 -136 -36 -234 -82 -319 -35 -64 -33 -86 4 -35 55 78
93 237 89 372 l-3 95 -8 -113z"/>
<path d="M846 443 c-6 -14 -5 -15 5 -6 7 7 10 15 7 18 -3 3 -9 -2 -12 -12z"/>
<path d="M1065 449 c-21 -21 -167 -110 -242 -147 -99 -50 -197 -86 -297 -112
-94 -24 -151 -25 -189 -5 -20 10 -27 11 -24 2 3 -6 -10 -27 -27 -46 l-31 -33
42 21 c57 28 66 27 20 -4 -52 -36 -46 -40 13 -10 28 14 55 23 60 20 12 -7 33
-112 25 -125 -3 -5 -1 -10 5 -10 8 0 10 20 8 61 l-3 62 94 19 c51 10 123 30
160 43 36 13 92 33 124 45 43 15 77 20 125 18 l67 -3 20 -123 19 -122 271 0
271 0 10 38 c6 21 8 44 6 51 -7 20 -80 62 -136 77 -116 32 -297 75 -381 90
-49 9 -106 19 -125 23 l-34 6 79 51 c91 59 120 87 112 109 -7 17 -27 19 -42 4z"/>
<path d="M374 385 c-9 -14 -14 -28 -11 -31 3 -3 13 8 22 25 19 37 12 41 -11 6z"/>
<path d="M3600 116 c0 -7 125 -33 315 -66 99 -17 198 -36 221 -41 23 -6 54 -9
70 -7 35 4 -166 47 -414 89 -180 30 -192 32 -192 25z"/>
<path d="M220 59 c-22 -18 -22 -19 -3 -10 12 6 25 16 28 21 9 15 3 12 -25 -11z"/>
</g>
</svg>
